<?xml version="1.0" encoding="UTF-8"?>
<svg viewBox="0 0 1280 640" xmlns="http://www.w3.org/2000/svg">
  <g fill="none" fill-rule="evenodd">
    <path d="M808.481 352.658a38.541 38.541 0 00-3.964-16.94 26.216 26.216 0 00-15.122-17.02 26.804 26.804 0 002.137-22.246 26.853 26.853 0 00-15.463-16.154c.272-14.482-11.05-26.555-25.52-27.213a26.652 26.652 0 00-30.108-25.244 26.821 26.821 0 00-14.579-18.767 26.781 26.781 0 00-23.751.186 26.59 26.59 0 00-19.662-11.48 26.528 26.528 0 00-21.315 7.951 26.5 26.5 0 00-2.073 2.539 26.402 26.402 0 00-20.613-6.083 26.344 26.344 0 00-18.284 11.262 26.782 26.782 0 00-23.752-.212 26.743 26.743 0 00-14.558 18.752 26.588 26.588 0 00-30.08 25.211 26.588 26.588 0 00-25.212 30.08 26.832 26.832 0 00-18.223 13.508 26.867 26.867 0 00-1.368 22.65c-12.117 10.693-16.336 27.78-10.592 42.899 5.744 15.12 20.25 25.11 36.418 25.083l256.791.139c21.472-.053 38.852-17.434 38.904-38.905l-.01.004z" fill="#FCEA2B" fill-rule="nonzero"/>
    <path d="m562.98 235.14 11.78 16.972m65.448-40.729 3.437 20.484m77.964-0.877-11.862 16.886" stroke="#F1B31C" stroke-linecap="round" stroke-width="15"/>
    <path d="M809.638 355.891a38.513 38.513 0 00-3.954-16.941 26.17 26.17 0 00-15.112-17.013 26.819 26.819 0 002.152-22.25 26.805 26.805 0 00-15.454-16.146c.282-14.486-11.033-26.553-25.507-27.201a26.616 26.616 0 00-30.095-25.228 26.776 26.776 0 00-14.569-18.76 26.787 26.787 0 00-23.755.202 26.55 26.55 0 00-19.658-11.469 26.566 26.566 0 00-21.324 7.968 26.558 26.558 0 00-2.076 2.54 26.38 26.38 0 00-20.612-6.07A26.395 26.395 0 00601.38 216.8a26.786 26.786 0 00-23.755-.195 26.797 26.797 0 00-14.574 18.765 26.63 26.63 0 00-30.104 25.236 26.633 26.633 0 00-25.236 30.104 26.887 26.887 0 00-19.62 36.177c-12.126 10.702-16.357 27.795-10.622 42.913a38.836 38.836 0 0036.406 25.062l256.837-.037c21.476-.067 38.871-17.463 38.937-38.939l-.01.005z" stroke="#F1B31C" stroke-linecap="round" stroke-linejoin="round" stroke-width="15"/>
    <path d="M1177.481 354.658a38.541 38.541 0 00-3.964-16.94 26.216 26.216 0 00-15.122-17.02 26.804 26.804 0 002.137-22.246 26.853 26.853 0 00-15.463-16.154c.272-14.482-11.05-26.555-25.52-27.213a26.652 26.652 0 00-30.108-25.244 26.821 26.821 0 00-14.579-18.767 26.781 26.781 0 00-23.751.186 26.59 26.59 0 00-19.662-11.48 26.528 26.528 0 00-21.315 7.951 26.5 26.5 0 00-2.073 2.539 26.402 26.402 0 00-20.613-6.083 26.344 26.344 0 00-18.284 11.262 26.782 26.782 0 00-23.752-.212 26.743 26.743 0 00-14.558 18.752 26.588 26.588 0 00-30.08 25.211 26.588 26.588 0 00-25.212 30.08 26.832 26.832 0 00-18.223 13.508 26.867 26.867 0 00-1.368 22.65c-12.117 10.693-16.336 27.78-10.592 42.899 5.744 15.12 20.25 25.11 36.418 25.083l256.791.139c21.472-.053 38.852-17.434 38.904-38.905l-.01.004z" fill="#FCEA2B" fill-rule="nonzero"/>
    <path d="m931.98 237.14 11.78 16.972m65.448-40.729 3.437 20.484m77.964-0.877-11.862 16.886" stroke="#F1B31C" stroke-linecap="round" stroke-width="15"/>
    <g stroke="#F1B31C" stroke-linecap="round" stroke-linejoin="round" stroke-width="15">
      <path d="M1178.638 357.891a38.513 38.513 0 00-3.954-16.941 26.17 26.17 0 00-15.112-17.013 26.819 26.819 0 002.152-22.25 26.805 26.805 0 00-15.454-16.146c.282-14.486-11.033-26.553-25.507-27.201a26.616 26.616 0 00-30.095-25.228 26.776 26.776 0 00-14.569-18.76 26.787 26.787 0 00-23.755.202 26.55 26.55 0 00-19.658-11.469 26.566 26.566 0 00-21.324 7.968 26.558 26.558 0 00-2.076 2.54 26.38 26.38 0 00-20.612-6.07A26.395 26.395 0 00970.38 218.8a26.786 26.786 0 00-23.755-.195 26.797 26.797 0 00-14.574 18.765 26.63 26.63 0 00-30.104 25.236 26.633 26.633 0 00-25.236 30.104 26.887 26.887 0 00-19.62 36.177c-12.126 10.702-16.357 27.795-10.622 42.913a38.836 38.836 0 0036.406 25.062l256.837-.037c21.476-.067 38.871-17.463 38.937-38.939l-.01.005z"/>
    </g>
    <path d="M434.481 354.658a38.541 38.541 0 00-3.964-16.94 26.216 26.216 0 00-15.122-17.02 26.804 26.804 0 002.137-22.246 26.853 26.853 0 00-15.463-16.154c.272-14.482-11.05-26.555-25.52-27.213a26.652 26.652 0 00-30.108-25.244 26.821 26.821 0 00-14.579-18.767 26.781 26.781 0 00-23.751.186 26.59 26.59 0 00-19.662-11.48 26.528 26.528 0 00-21.315 7.951 26.5 26.5 0 00-2.073 2.539 26.402 26.402 0 00-20.613-6.083 26.344 26.344 0 00-18.284 11.262 26.782 26.782 0 00-23.752-.212 26.743 26.743 0 00-14.558 18.752 26.588 26.588 0 00-30.08 25.211 26.588 26.588 0 00-25.212 30.08 26.832 26.832 0 00-18.223 13.508 26.867 26.867 0 00-1.368 22.65c-12.117 10.693-16.336 27.78-10.592 42.899 5.744 15.12 20.25 25.11 36.418 25.083l256.791.139c21.472-.053 38.852-17.434 38.904-38.905l-.01.004z" fill="#FCEA2B" fill-rule="nonzero"/>
    <path d="m188.98 237.14 11.78 16.972m65.448-40.729 3.437 20.484m77.964-0.877-11.862 16.886" stroke="#F1B31C" stroke-linecap="round" stroke-width="15"/>
    <g stroke="#F1B31C" stroke-linecap="round" stroke-linejoin="round" stroke-width="15">
      <path d="M435.638 357.891a38.513 38.513 0 00-3.954-16.941 26.17 26.17 0 00-15.112-17.013 26.819 26.819 0 002.152-22.25 26.805 26.805 0 00-15.454-16.146c.282-14.486-11.033-26.553-25.507-27.201a26.616 26.616 0 00-30.095-25.228 26.776 26.776 0 00-14.569-18.76 26.787 26.787 0 00-23.755.202 26.55 26.55 0 00-19.658-11.469 26.566 26.566 0 00-21.324 7.968 26.558 26.558 0 00-2.076 2.54 26.38 26.38 0 00-20.612-6.07A26.395 26.395 0 00227.38 218.8a26.786 26.786 0 00-23.755-.195 26.797 26.797 0 00-14.574 18.765 26.63 26.63 0 00-30.104 25.236 26.633 26.633 0 00-25.236 30.104 26.887 26.887 0 00-19.62 36.177c-12.126 10.702-16.357 27.795-10.622 42.913a38.836 38.836 0 0036.406 25.062l256.837-.037c21.476-.067 38.871-17.463 38.937-38.939l-.01.005z"/>
    </g>
    <g fill-rule="nonzero">
      <path d="m297.01 366h-58.026c-4.964 0-8.987-4.056-8.987-9.06v-76.88c0-5.004 4.023-9.06 8.987-9.06h58.026c4.963 0 8.987 4.056 8.987 9.06v76.88c0 5.004-4.024 9.06-8.987 9.06z" fill="#6762A6"/>
      <path d="M277.93 352v-37.188s2.425-8.899-29.87 3.64c-.06.16-.06-34.387-.06-34.387l10.552-.065v22.135s29.547-11.608 29.547 8.803V352H277.93zm6.013-54.604H272.75c4.03-4.913 7.677-13.331 7.677-13.331H292s-1.981 5.486-8.056 13.331zm-35.751 54.54v-21.178l10.617 10.59-10.617 10.588z" fill="#FFF"/>
    </g>
    <g fill-rule="nonzero">
      <path d="M687.757 327.907c-.553-1.677-2.002-2.846-3.875-3.126-.883-.132-1.895-.076-3.092.171-2.087.432-3.635.596-4.764.627 4.264-7.21 7.731-15.433 9.727-23.173 3.228-12.516 1.503-18.218-.512-20.797-5.334-6.827-13.117-10.494-22.505-10.606-5.009-.062-9.405.929-11.699 1.641-2.135-.377-4.432-.588-6.84-.627-4.517-.072-8.507.914-11.917 2.94a54.262 54.262 0 00-8.416-2.115c-8.229-1.353-14.86-.299-19.712 3.133-5.874 4.156-8.597 11.377-8.093 21.461.16 3.202 1.948 12.944 4.764 22.183 1.618 5.31 3.344 9.72 5.128 13.108 2.532 4.804 5.24 7.633 8.281 8.649 1.705.569 4.801.967 8.058-1.75.413.5.964.998 1.695 1.46a11.265 11.265 0 003.197 1.35c4.085 1.023 7.912.767 11.177-.667.02.582.036 1.138.049 1.617.021.779.043 1.542.071 2.255.194 4.826.521 8.578 1.493 11.203.053.144.125.365.2.598.485 1.486 1.295 3.973 3.356 5.921 2.135 2.018 4.717 2.637 7.081 2.637a15.89 15.89 0 003.31-.369c3.538-.76 7.555-1.916 10.462-6.06 2.748-3.92 4.083-9.821 4.325-19.12l.088-.753.058-.492.647.057.167.011c3.603.165 8.009-.6 10.714-1.86 2.138-.993 8.99-4.616 7.377-9.507" fill="#000"/>
      <path d="M681.594 328.844c-10.711 2.213-11.448-1.419-11.448-1.419 11.309-16.803 16.037-38.132 11.957-43.352-11.13-14.24-30.396-7.505-30.717-7.33l-.104.018c-2.116-.44-4.484-.702-7.146-.745-4.846-.08-8.522 1.272-11.312 3.39 0 0-34.369-14.178-32.77 17.832.34 6.81 9.747 51.525 20.967 38.019 4.101-4.94 8.064-9.115 8.064-9.115 1.968 1.31 4.324 1.977 6.793 1.737l.192-.163c-.06.613-.032 1.213.077 1.923-2.89 3.234-2.04 3.802-7.819 4.993-5.847 1.206-2.412 3.354-.17 3.916 2.72.68 9.009 1.645 13.258-4.312l-.169.68c1.132.908 1.928 5.908 1.794 10.44-.133 4.533-.222 7.645.67 10.076.893 2.43 1.782 7.9 9.378 6.27 6.347-1.362 9.637-4.892 10.094-10.78.325-4.185 1.06-3.566 1.106-7.309l.59-1.771c.68-5.674.108-7.505 4.018-6.653l.95.084c2.878.13 6.645-.464 8.856-1.493 4.76-2.212 7.584-5.906 2.89-4.936" fill="#336791"/>
      <path d="M635.588 299.742c-.948-.14-1.806-.01-2.24.336a.876.876 0 00-.34.576c-.055.412.218.867.387 1.102.476.665 1.171 1.122 1.86 1.222.1.015.199.022.298.022 1.148 0 2.191-.942 2.283-1.637.115-.87-1.084-1.45-2.248-1.62m31.407.026c-.09-.682-1.243-.876-2.337-.716-1.092.16-2.151.68-2.063 1.363.071.532.983 1.44 2.062 1.44.09 0 .183-.006.276-.02.72-.105 1.248-.587 1.5-.865.381-.423.603-.895.562-1.202" fill="#FFF"/>
      <path d="M685.905 328.077c-.41-1.237-1.73-1.635-3.922-1.183-6.51 1.34-8.842.412-9.607-.15 5.06-7.693 9.223-16.991 11.469-25.666 1.063-4.11 1.651-7.926 1.7-11.037.052-3.414-.53-5.923-1.732-7.455-4.846-6.179-11.959-9.493-20.568-9.584-5.919-.066-10.92 1.445-11.889 1.87a29.7 29.7 0 00-6.69-.857c-4.443-.072-8.283.99-11.463 3.153a51.264 51.264 0 00-9.316-2.437c-7.547-1.213-13.544-.294-17.824 2.731-5.107 3.61-7.464 10.063-7.007 19.18.153 3.067 1.905 12.502 4.669 21.538 3.638 11.893 7.593 18.625 11.754 20.01a5.275 5.275 0 001.668.276c1.518 0 3.379-.683 5.315-3.006a191.29 191.29 0 017.326-8.271 11.824 11.824 0 005.27 1.414l.014.144c-.317.376-.627.758-.93 1.145-1.273 1.613-1.538 1.95-5.637 2.791-1.167.24-4.264.878-4.31 3.044-.048 2.366 3.662 3.36 4.085 3.466 1.473.368 2.892.55 4.245.55 3.292 0 6.188-1.08 8.503-3.169-.071 8.438.281 16.752 1.297 19.285.831 2.073 2.863 7.141 9.28 7.141.941 0 1.977-.11 3.117-.353 6.697-1.433 9.605-4.386 10.73-10.897.602-3.48 1.635-11.79 2.121-16.246 1.026.319 2.346.465 3.773.465 2.976 0 6.411-.631 8.565-1.629 2.42-1.121 6.786-3.872 5.994-6.263zm-15.948-30.119c-.022 1.316-.203 2.51-.395 3.758-.208 1.34-.422 2.727-.476 4.41-.053 1.638.152 3.341.35 4.988.401 3.327.812 6.751-.78 10.13-.263-.467-.499-.95-.704-1.446-.198-.478-.628-1.247-1.222-2.31-2.314-4.14-7.732-13.837-4.959-17.793.827-1.178 2.923-2.388 8.186-1.737zm-6.38-22.291c7.715.17 13.817 3.049 18.137 8.557 3.313 4.226-.335 23.45-10.898 40.037-.106-.135-.213-.27-.32-.403l-.134-.167c2.73-4.498 2.196-8.948 1.72-12.894-.195-1.62-.38-3.149-.332-4.585.048-1.523.25-2.829.445-4.092.24-1.556.484-3.166.417-5.064.05-.199.07-.434.044-.714-.172-1.82-2.254-7.267-6.5-12.198-2.322-2.697-5.708-5.715-10.331-7.75 1.988-.411 4.708-.795 7.753-.727zm-43.164 58.093c-2.133 2.56-3.606 2.07-4.09 1.908-3.157-1.05-6.82-7.708-10.05-18.264-2.794-9.135-4.427-18.32-4.556-20.896-.408-8.145 1.57-13.822 5.882-16.873 7.016-4.965 18.551-1.993 23.186-.486-.066.066-.136.127-.201.194-7.607 7.664-7.426 20.76-7.407 21.56-.001.309.025.746.06 1.347.131 2.203.375 6.302-.276 10.944-.604 4.314.728 8.537 3.656 11.585.3.312.616.61.946.89a195.34 195.34 0 00-7.15 8.091zm8.128-10.82c-2.36-2.458-3.431-5.875-2.94-9.378.686-4.903.433-9.174.297-11.469-.02-.321-.037-.602-.046-.824 1.11-.983 6.26-3.736 9.932-2.897 1.676.383 2.697 1.522 3.121 3.48 2.197 10.14.291 14.365-1.24 17.761-.316.7-.615 1.361-.87 2.045l-.197.53c-.5 1.336-.964 2.58-1.252 3.76-2.509-.007-4.95-1.077-6.805-3.009zm.385 13.673c-.732-.182-1.391-.5-1.778-.763.323-.151.898-.357 1.894-.562 4.823-.99 5.567-1.69 7.194-3.75.373-.473.795-1.008 1.38-1.66l.001-.001c.872-.975 1.271-.81 1.994-.51.586.242 1.157.975 1.389 1.782.11.38.232 1.104-.17 1.667-3.398 4.746-8.348 4.685-11.904 3.797zm25.238 23.434c-5.9 1.261-7.988-1.742-9.365-5.176-.888-2.217-1.325-12.213-1.015-23.252a1.327 1.327 0 00-.058-.422 5.561 5.561 0 00-.165-.78c-.46-1.606-1.583-2.95-2.93-3.506-.535-.222-1.517-.628-2.697-.326.251-1.035.688-2.204 1.161-3.469l.199-.532c.223-.6.504-1.222.8-1.88 1.603-3.553 3.798-8.42 1.416-19.414-.893-4.118-3.873-6.129-8.39-5.662-2.709.28-5.186 1.37-6.422 1.996-.266.134-.51.264-.736.39.345-4.149 1.648-11.903 6.523-16.809 3.07-3.088 7.157-4.614 12.137-4.532 9.814.16 16.107 5.186 19.658 9.373 3.06 3.609 4.717 7.244 5.379 9.204-4.974-.505-8.356.475-10.07 2.921-3.731 5.32 2.04 15.648 4.814 20.611.508.91.947 1.696 1.085 2.03.904 2.184 2.073 3.643 2.927 4.707.261.326.515.643.708.919-1.506.433-4.212 1.434-3.965 6.439-.199 2.51-1.613 14.268-2.332 18.421-.948 5.488-2.972 7.532-8.662 8.75v-.001zm24.625-28.118c-1.54.713-4.118 1.248-6.567 1.363-2.704.126-4.081-.302-4.405-.566-.152-3.119 1.011-3.444 2.242-3.79.194-.053.383-.106.565-.17a4.6 4.6 0 00.373.273c2.174 1.431 6.051 1.586 11.525.458l.06-.012c-.738.69-2.002 1.614-3.793 2.444z" fill="#FFF"/>
    </g>
    <g fill="#CB2026" fill-rule="nonzero">
      <path d="M1041.268 359.389v6.592h11.909a6.83 6.83 0 004.824-1.994 6.803 6.803 0 001.999-4.815v-2.55a6.724 6.724 0 00-4.207-6.286 6.762 6.762 0 00-2.616-.493h-5.948v-3.058h11.785v-6.6h-11.289a6.952 6.952 0 00-4.815 2.057 6.925 6.925 0 00-2.008 4.828v2.296c0 4.482 3.87 6.779 6.823 6.779 8.218.037-1.966 0 5.626 0v3.206l-12.083.038zm-63.966-1.604s6.407-.55 6.407-8.784c0-8.233-7.74-9.001-7.74-9.001H962v26h7.009v-6.283l6.06 6.264h10.377l-8.144-8.196zm-2.698-5.324h-5.583v-5.936h5.62s1.575.582 1.575 2.953c0 2.37-1.612 2.983-1.612 2.983zm26.391-12.275h-7.12c-5.074 0-6.786 4.587-6.786 6.772v19.023h7.114v-4.556h6.687v4.556h6.897v-19.023c0-5.534-5.036-6.772-6.792-6.772zm-.105 13.879h-6.724v-6.302s0-1.424 2.233-1.424h2.444c1.972 0 2.01 1.424 2.01 1.424v6.302h.037zM1019 340h-7v26h7zM1029.23 359.28V340H1022v26h17v-6.72zM965 331h34.126s-6.503-29.342 15.102-41.216c4.716-2.262 19.712-10.693 44.258 7.197a26.278 26.278 0 011.514-1.15s-22.473-22.109-47.497-19.638c-12.577 1.106-28.051 12.369-37.129 27.293C966.297 318.411 965 331 965 331z"/>
      <path d="M965 331h34.126s-6.503-29.342 15.102-41.216c4.716-2.262 19.712-10.693 44.258 7.197a26.278 26.278 0 011.514-1.15s-22.473-22.109-47.497-19.638c-12.577 1.106-28.051 12.369-37.129 27.293C966.297 318.411 965 331 965 331z"/>
      <path d="M965 331h34.126s-6.503-29.46 15.102-41.383c4.716-2.271 19.712-10.737 44.258 7.226.782-.645 1.514-1.154 1.514-1.154s-22.473-22.199-47.497-19.718c-12.62 1.11-28.095 12.419-37.172 27.404C966.253 318.36 965 331 965 331zm71.143-52.635l.174-2.867a21.06 21.06 0 00-4.195-1.498l-.173 2.824c1.427.466 2.81.982 4.194 1.54z"/>
      <path d="M1032.736 286.893l-.173 2.686a24.14 24.14 0 014.264.514l.173-2.643a30.659 30.659 0 00-4.264-.557zm-15.923-13.293h.433l-.865-2.6c-1.38.003-2.759.089-4.128.257l.816 2.526a36.52 36.52 0 013.744-.183zm2.064 15.68l.995 2.942a27.277 27.277 0 013.744-1.493l-.951-2.814c-1.29.376-2.555.831-3.788 1.364zm-19.538-11.214l-1.94-2.937a63.642 63.642 0 00-3.356 1.836l1.984 2.985c1.118-.66 2.193-1.321 3.312-1.884zm8.824 19.184l2.063 3.059a24.072 24.072 0 012.54-3.022l-1.934-2.9c-.967.881-1.86 1.839-2.67 2.863zm-6.241 13.722l3.485 2.728c.177-1.681.478-3.348.902-4.986l-3.09-2.447a39.648 39.648 0 00-1.297 4.705zm-18.853-20.243l-3.058-2.643a73.778 73.778 0 00-3.182 3.2l3.312 2.808a43.04 43.04 0 012.928-3.365zm-12.975 19.05l-4.944-1.793c-.815 1.836-1.724 3.965-2.15 5.115l4.943 1.792c.532-1.45 1.44-3.536 2.126-5.114h.025zm31.179 12.015c.06 1.8.233 3.593.519 5.37l5.166 1.836a53.727 53.727 0 01-1.032-5.506l-4.653-1.7z"/>
    </g>
    <path d="M0 0h1280v640H0z"/>
  </g>
</svg>
